<svg id="Layer_1" data-name="Layer 1" xmlns="http://www.w3.org/2000/svg" viewBox="0 0 657.16 187.25"><defs><style>.cls-1{fill:#f5f5f7;}</style></defs><path class="cls-1" d="M83.93,186.12a113.88,113.88,0,0,1-28.31-3.5,83.67,83.67,0,0,1-25-10.82,54.65,54.65,0,0,1-18-18.93Q6,141.26,6,125H32.71a48.43,48.43,0,0,0,.64,5.09,33,33,0,0,0,3.34,9.55A36.58,36.58,0,0,0,45,150.17q5.57,5.1,15.59,8.43t25.29,3.34a64.17,64.17,0,0,0,19.41-2.54A36.15,36.15,0,0,0,118,152.72a26.35,26.35,0,0,0,6.84-8.6,19.28,19.28,0,0,0,2.06-8q.32-9.85-6-15.91T104,110.56A220.49,220.49,0,0,0,81.07,104q-12.4-2.87-24.82-6.69a112.23,112.23,0,0,1-22.74-9.7A43.53,43.53,0,0,1,17.28,71.9Q11.38,62,12,47.09A41.06,41.06,0,0,1,22.21,22q9.22-10.5,25.45-16.22T84.57,0a87.58,87.58,0,0,1,34.52,6.68,59.59,59.59,0,0,1,25.45,20q9.71,13.37,9.39,33.41H127.84q.32-10.82-4.46-17.82A32.87,32.87,0,0,0,111.3,31.5,53.16,53.16,0,0,0,96,26.25a81.08,81.08,0,0,0-14.31-1.44q-17.82,0-29.43,6.69T40.35,50Q40,60.14,46.39,66T63.25,75.4a238.89,238.89,0,0,0,23.23,6.37q12.72,2.87,25.13,6.36a101.93,101.93,0,0,1,22.75,9.38,43.84,43.84,0,0,1,16.23,15.75q5.88,9.87,5.25,25.46a39.13,39.13,0,0,1-10.18,25.45q-9.56,10.5-25.46,16.22T83.93,186.12Z"/><path class="cls-1" d="M180.65,182.3V52.18h22.91L208,82.4h.64a49.36,49.36,0,0,1,2.54-6A42.59,42.59,0,0,1,218.51,66a44.42,44.42,0,0,1,13.68-9.71q8.59-4.12,21.64-4.13,13.66,0,22.43,4.29a37.34,37.34,0,0,1,14,11.46A45.51,45.51,0,0,1,297.73,84a105,105,0,0,1,2.87,17.82q.63,8.91.63,16.86V182.3H275.46V118.67a85.8,85.8,0,0,0-2.54-22,29.66,29.66,0,0,0-9.23-15.27q-6.68-5.73-20.05-5.73t-21.15,6.36a34.89,34.89,0,0,0-11.14,16.55A68.89,68.89,0,0,0,208,120.26v62Z"/><path class="cls-1" d="M386.18,185.49q-21.33,0-35.79-8.6a52.66,52.66,0,0,1-21.48-23.7q-7-15.1-7-34.52t7-34.52a53,53,0,0,1,21.32-23.7q14.31-8.6,35.95-8.59,31.17,0,47.4,18.45T449.81,119q0,18.78-6.84,33.88a53.45,53.45,0,0,1-21,23.87Q407.81,185.49,386.18,185.49Zm0-22.6q15.27,0,23.38-6.68a34.8,34.8,0,0,0,11.3-17,72,72,0,0,0,0-42.31,34.84,34.84,0,0,0-11.3-17q-8.12-6.69-23.38-6.68t-23.71,6.68a34,34,0,0,0-11.61,17,72,72,0,0,0,0,42.31,33.92,33.92,0,0,0,11.61,17Q370.9,162.9,386.18,162.89Z"/><path class="cls-1" d="M495.94,182.3,463.49,57V51.86h25.77L514.71,160h.64L545.89,51.86h23.23L600.61,160h.64L626.38,51.86h25.77V57L619.38,182.3H582.16L558,98h-.64L533.48,182.3Z"/><path class="cls-1" d="M386.31,153.07h-.9a34,34,0,0,0-34-33.95v-.89a34,34,0,0,0,34-34h.9a34,34,0,0,0,33.95,34v.89A34,34,0,0,0,386.31,153.07Z"/></svg>