<svg id="Layer_1" data-name="Layer 1" xmlns="http://www.w3.org/2000/svg" viewBox="0 0 30.27 31.62"><defs><style>.cls-1{fill:#22345f;}</style></defs><path class="cls-1" d="M16.08,31.81a16.37,16.37,0,0,1-8.47-2,12.56,12.56,0,0,1-5.09-5.61A19.29,19.29,0,0,1,.87,16,19.32,19.32,0,0,1,2.52,7.83,12.64,12.64,0,0,1,7.57,2.22a16.35,16.35,0,0,1,8.51-2q7.37,0,11.21,4.37t3.84,11.52a19.17,19.17,0,0,1-1.62,8,12.6,12.6,0,0,1-5,5.65A15.89,15.89,0,0,1,16.08,31.81Zm0-5.34a8.48,8.48,0,0,0,5.53-1.59,8.18,8.18,0,0,0,2.67-4,16.89,16.89,0,0,0,0-10,8.25,8.25,0,0,0-2.67-4,8.53,8.53,0,0,0-5.53-1.58,8.85,8.85,0,0,0-5.61,1.58,8.07,8.07,0,0,0-2.75,4,16.89,16.89,0,0,0,0,10,8,8,0,0,0,2.75,4A8.79,8.79,0,0,0,16.08,26.47Z" transform="translate(-0.87 -0.19)"/><path class="cls-1" d="M16.11,24.14h-.22a8,8,0,0,0-8-8v-.22a8,8,0,0,0,8-8h.22a8,8,0,0,0,8,8v.22A8,8,0,0,0,16.11,24.14Z" transform="translate(-0.87 -0.19)"/></svg>