<svg id="Layer_1" data-name="Layer 1" xmlns="http://www.w3.org/2000/svg" viewBox="0 0 228.61 237.34"><defs><style>.cls-1{fill:#f5f5f7;}</style></defs><path class="cls-1" d="M115.59,237.34q-37.86,0-63.57-15.26A93.75,93.75,0,0,1,13.87,180Q1.44,153.15,1.44,118.67T13.87,57.36a94.28,94.28,0,0,1,37.86-42.1Q77.17,0,115.59,0,171,0,199.79,32.77t28.82,86.47q0,33.35-12.15,60.18a94.69,94.69,0,0,1-37.3,42.38Q154,237.34,115.59,237.34Zm0-40.12q27.12,0,41.54-11.87a61.81,61.81,0,0,0,20.06-30.23,127.8,127.8,0,0,0,0-75.16,61.9,61.9,0,0,0-20.06-30.23q-14.41-11.86-41.54-11.87T73.49,49.73A60.3,60.3,0,0,0,52.87,80a127.59,127.59,0,0,0,0,75.16,60.21,60.21,0,0,0,20.62,30.23Q88.46,197.21,115.59,197.22Z"/><path class="cls-1" d="M115.82,179.77h-1.59a60.31,60.31,0,0,0-60.3-60.31v-1.58a60.31,60.31,0,0,0,60.3-60.31h1.59a60.31,60.31,0,0,0,60.31,60.31v1.58A60.31,60.31,0,0,0,115.82,179.77Z"/></svg>