<svg id="Layer_1" data-name="Layer 1" xmlns="http://www.w3.org/2000/svg" viewBox="0 0 657.16 266.05"><defs><style>.cls-1{fill:#f5f5f7;}</style></defs><path class="cls-1" d="M83.93,186.12a113.88,113.88,0,0,1-28.31-3.5,83.67,83.67,0,0,1-25-10.82,54.65,54.65,0,0,1-18-18.93Q6,141.26,6,125H32.71a48.43,48.43,0,0,0,.64,5.09,33,33,0,0,0,3.34,9.55A36.58,36.58,0,0,0,45,150.17q5.57,5.1,15.59,8.43t25.29,3.34a64.17,64.17,0,0,0,19.41-2.54A36.15,36.15,0,0,0,118,152.72a26.35,26.35,0,0,0,6.84-8.6,19.28,19.28,0,0,0,2.06-8q.32-9.85-6-15.91T104,110.56A220.49,220.49,0,0,0,81.07,104q-12.4-2.87-24.82-6.69a112.23,112.23,0,0,1-22.74-9.7A43.53,43.53,0,0,1,17.28,71.9Q11.38,62,12,47.09A41.06,41.06,0,0,1,22.21,22q9.22-10.5,25.45-16.22T84.57,0a87.58,87.58,0,0,1,34.52,6.68,59.59,59.59,0,0,1,25.45,20q9.71,13.37,9.39,33.41H127.84q.32-10.82-4.46-17.82A32.87,32.87,0,0,0,111.3,31.5,53.16,53.16,0,0,0,96,26.25a81.08,81.08,0,0,0-14.31-1.44q-17.82,0-29.43,6.69T40.35,50Q40,60.14,46.39,66T63.25,75.4a238.89,238.89,0,0,0,23.23,6.37q12.72,2.87,25.13,6.36a101.93,101.93,0,0,1,22.75,9.38,43.84,43.84,0,0,1,16.23,15.75q5.88,9.87,5.25,25.46a39.13,39.13,0,0,1-10.18,25.45q-9.56,10.5-25.46,16.22T83.93,186.12Z"/><path class="cls-1" d="M180.65,182.3V52.18h22.91L208,82.4h.64a49.36,49.36,0,0,1,2.54-6A42.59,42.59,0,0,1,218.51,66a44.42,44.42,0,0,1,13.68-9.71q8.59-4.12,21.64-4.13,13.66,0,22.43,4.29a37.34,37.34,0,0,1,14,11.46A45.51,45.51,0,0,1,297.73,84a105,105,0,0,1,2.87,17.82q.63,8.91.63,16.86V182.3H275.46V118.67a85.8,85.8,0,0,0-2.54-22,29.66,29.66,0,0,0-9.23-15.27q-6.68-5.73-20.05-5.73t-21.15,6.36a34.89,34.89,0,0,0-11.14,16.55A68.89,68.89,0,0,0,208,120.26v62Z"/><path class="cls-1" d="M386.18,185.49q-21.33,0-35.79-8.6a52.66,52.66,0,0,1-21.48-23.7q-7-15.1-7-34.52t7-34.52a53,53,0,0,1,21.32-23.7q14.31-8.6,35.95-8.59,31.17,0,47.4,18.45T449.81,119q0,18.78-6.84,33.88a53.45,53.45,0,0,1-21,23.87Q407.81,185.49,386.18,185.49Zm0-22.6q15.27,0,23.38-6.68a34.8,34.8,0,0,0,11.3-17,72,72,0,0,0,0-42.31,34.84,34.84,0,0,0-11.3-17q-8.12-6.69-23.38-6.68t-23.71,6.68a34,34,0,0,0-11.61,17,72,72,0,0,0,0,42.31,33.92,33.92,0,0,0,11.61,17Q370.9,162.9,386.18,162.89Z"/><path class="cls-1" d="M495.94,182.3,463.49,57V51.86h25.77L514.71,160h.64L545.89,51.86h23.23L600.61,160h.64L626.38,51.86h25.77V57L619.38,182.3H582.16L558,98h-.64L533.48,182.3Z"/><path class="cls-1" d="M28.77,266.28q-7.75,0-11.2-3.15t-3.25-9c0-.49.23-.73.54-.73h2.51c.36,0,.53.22.53.66,0,3.18.89,5.49,2.65,6.93s4.6,2.15,8.49,2.15,6.73-.63,8.52-1.89,2.68-3.25,2.68-6a8.64,8.64,0,0,0-.8-4,7,7,0,0,0-2.51-2.69,26.92,26.92,0,0,0-4.51-2.25l-8.68-3.71a23.19,23.19,0,0,1-5-2.82A8.56,8.56,0,0,1,16,236.35a12.15,12.15,0,0,1-.83-4.74,9,9,0,0,1,3.64-7.69q3.58-2.58,10.08-2.58a20,20,0,0,1,7.89,1.36,10.17,10.17,0,0,1,4.8,3.94A10.77,10.77,0,0,1,43,233.07c-.05.53-.2.8-.47.8H39.91a.42.42,0,0,1-.33-.17,1,1,0,0,1-.14-.63,7.3,7.3,0,0,0-2.51-6.4c-1.82-1.48-4.55-2.22-8.22-2.22a13.56,13.56,0,0,0-7.39,1.7,6,6,0,0,0-2.69,5.26,8.17,8.17,0,0,0,.7,3.62,6.66,6.66,0,0,0,2.25,2.52,26.46,26.46,0,0,0,4.21,2.28l8.68,3.71a29.3,29.3,0,0,1,5.44,3,8.72,8.72,0,0,1,3,3.55,12.93,12.93,0,0,1,.89,5.17q0,5.43-3.54,8.25T28.77,266.28Z"/><path class="cls-1" d="M54.76,265.48a.41.41,0,0,1-.47-.46V222.53a.41.41,0,0,1,.47-.46H78.09a.4.4,0,0,1,.46.46v2.32a.41.41,0,0,1-.46.47H57.8v16.43H76.56a.42.42,0,0,1,.47.47v2.19a.42.42,0,0,1-.47.46H57.8v17.36H78.09a.41.41,0,0,1,.46.47V265a.4.4,0,0,1-.46.46Z"/><path class="cls-1" d="M91,265.48a.41.41,0,0,1-.47-.46V222.53a.41.41,0,0,1,.47-.46h12.59q7.15,0,10.93,2.91t3.78,9a12.14,12.14,0,0,1-2.45,7.79,11.89,11.89,0,0,1-7.16,4.08v.06L120.37,265a.34.34,0,0,1,0,.37.4.4,0,0,1-.37.16h-3.11a.6.6,0,0,1-.53-.33l-11.6-18.89H94V265c0,.31-.13.46-.4.46Zm3-22.14h9q6.22,0,9-2.35c1.83-1.57,2.75-3.85,2.75-6.86s-.93-5.42-2.78-6.86-4.69-2.15-8.49-2.15H94Z"/><path class="cls-1" d="M140.72,265.48a.52.52,0,0,1-.53-.33l-15-42.62c-.09-.31,0-.46.33-.46h2.85a.52.52,0,0,1,.53.33l11.2,31.88c.44,1.28.88,2.58,1.33,3.88s.86,2.62,1.26,3.94h.06l1.33-3.84q.66-1.92,1.26-3.78l11.46-32.08a.52.52,0,0,1,.53-.33h2.79c.35,0,.46.15.33.46l-15.18,42.62a.65.65,0,0,1-.6.33Z"/><path class="cls-1" d="M168.76,265.48a.4.4,0,0,1-.46-.46V222.53a.4.4,0,0,1,.46-.46h2.65c.27,0,.4.15.4.46V265c0,.31-.13.46-.4.46Z"/><path class="cls-1" d="M199.65,266.28q-7.76,0-11.83-3.91t-4.08-11.07V236.25q0-7.16,4.11-11.07t11.86-3.91a21,21,0,0,1,8.75,1.69,12,12,0,0,1,5.57,4.87,12.4,12.4,0,0,1,1.39,7.69,2.78,2.78,0,0,1-.16.4.38.38,0,0,1-.37.2h-2.58c-.36,0-.49-.15-.4-.46q.33-5.44-2.95-8.32t-9.18-2.89q-6,0-9.28,3.05t-3.25,8.75V251.3q0,5.7,3.25,8.75t9.28,3.05q6,0,9.21-2.85c2.12-1.9,3.1-4.69,2.92-8.36-.09-.3,0-.46.4-.46h2.58c.27,0,.44.2.53.6a13.19,13.19,0,0,1-1.59,7.62,12.26,12.26,0,0,1-5.47,4.91A20.22,20.22,0,0,1,199.65,266.28Z"/><path class="cls-1" d="M227.42,265.48A.4.4,0,0,1,227,265V222.53a.4.4,0,0,1,.46-.46h2.65c.27,0,.4.15.4.46V265c0,.31-.13.46-.4.46Z"/><path class="cls-1" d="M258.37,266.28q-7.89,0-11.93-3.91t-4-11.07V236.25q0-7.16,4-11.07t11.93-3.91q7.89,0,11.93,3.91t4.05,11.07V251.3q0,7.15-4.05,11.07T258.37,266.28Zm0-3.18q6,0,9.25-3.05t3.21-8.82V236.32q0-5.76-3.21-8.82t-9.25-3.05q-6,0-9.24,3.05t-3.22,8.82v14.91q0,5.78,3.22,8.82T258.37,263.1Z"/><path class="cls-1" d="M297.68,266.28q-7.76,0-11.2-3.15t-3.25-9c0-.49.22-.73.53-.73h2.52c.35,0,.53.22.53.66q0,4.77,2.65,6.93c1.77,1.44,4.6,2.15,8.48,2.15s6.73-.63,8.52-1.89,2.69-3.25,2.69-6a8.77,8.77,0,0,0-.8-4,7.07,7.07,0,0,0-2.52-2.69,26.54,26.54,0,0,0-4.51-2.25l-8.68-3.71a23.43,23.43,0,0,1-5-2.82,8.56,8.56,0,0,1-2.75-3.45,12.16,12.16,0,0,1-.82-4.74,9,9,0,0,1,3.64-7.69c2.39-1.72,5.74-2.58,10.08-2.58a20,20,0,0,1,7.88,1.36,10.19,10.19,0,0,1,4.81,3.94,10.77,10.77,0,0,1,1.42,6.43c0,.53-.2.8-.46.8h-2.58a.42.42,0,0,1-.34-.17,1.05,1.05,0,0,1-.13-.63,7.33,7.33,0,0,0-2.52-6.4q-2.71-2.22-8.22-2.22a13.58,13.58,0,0,0-7.39,1.7,6,6,0,0,0-2.68,5.26,8.32,8.32,0,0,0,.69,3.62,6.78,6.78,0,0,0,2.26,2.52,26.46,26.46,0,0,0,4.21,2.28l8.68,3.71a30,30,0,0,1,5.44,3,8.69,8.69,0,0,1,2.94,3.55,12.92,12.92,0,0,1,.9,5.17q0,5.43-3.55,8.25T297.68,266.28Z"/><path class="cls-1" d="M338.37,265.48a.4.4,0,0,1-.46-.46L339,222.53a.4.4,0,0,1,.46-.46h4.38a.55.55,0,0,1,.46.33l14.06,29.23,13.92-29.23a.46.46,0,0,1,.46-.33h4.37c.27,0,.4.15.4.46L378.54,265a.4.4,0,0,1-.46.46h-2.59c-.26,0-.39-.15-.39-.46l-.8-30.62c0-1.37-.06-2.73,0-4.08s0-2.73,0-4.14h-.07c-.57,1.32-1.16,2.64-1.75,3.94s-1.23,2.62-1.89,3.94l-11.8,24.2a.51.51,0,0,1-.53.33h-.13a.47.47,0,0,1-.47-.33l-11.93-24.33c-.57-1.28-1.15-2.57-1.72-3.88l-1.72-3.87h-.07c0,1.37.07,2.71.07,4s0,2.68-.07,4l-.8,30.76a.4.4,0,0,1-.46.46Z"/><path class="cls-1" d="M405.12,266.28q-7.56,0-11.53-4t-4-11.83V222.53a.41.41,0,0,1,.47-.46h2.65c.26,0,.39.15.39.46v28c0,4.16,1,7.29,3,9.42s5,3.18,9,3.18,7-1.06,9-3.18,3-5.26,3-9.42v-28c0-.31.13-.46.4-.46h2.65a.4.4,0,0,1,.46.46v28q0,7.63-4,11.7T405.12,266.28Zm-2.45-48.52a.28.28,0,0,1-.27-.17.36.36,0,0,1,0-.29l3.91-7a.62.62,0,0,1,.53-.34h3a.25.25,0,0,1,.26.17.4.4,0,0,1-.06.37l-4.51,6.89a.65.65,0,0,1-.6.33Z"/><path class="cls-1" d="M433.55,265.48a.41.41,0,0,1-.46-.46V222.53a.41.41,0,0,1,.46-.46h2.66c.26,0,.39.15.39.46v39.7h19.95a.42.42,0,0,1,.47.47V265a.41.41,0,0,1-.47.46Z"/><path class="cls-1" d="M469.68,265.48c-.26,0-.4-.15-.4-.46v-39.7H456.22a.41.41,0,0,1-.46-.47v-2.32a.4.4,0,0,1,.46-.46h29.57a.41.41,0,0,1,.46.46v2.32a.42.42,0,0,1-.46.47h-13V265a.41.41,0,0,1-.47.46Z"/><path class="cls-1" d="M495.93,265.48a.41.41,0,0,1-.47-.46V222.53a.41.41,0,0,1,.47-.46h2.65c.26,0,.4.15.4.46V265c0,.31-.14.46-.4.46Z"/><path class="cls-1" d="M512.3,265.48a.41.41,0,0,1-.47-.46V222.53a.41.41,0,0,1,.47-.46h10.6q7.7,0,11.7,3.21t4,9.91q0,6.36-3.91,9.68t-11.93,3.31h-7.42V265c0,.31-.14.46-.4.46Zm3.05-20.34h7.36q6.62,0,9.51-2.49t2.88-7.39q0-5.37-3.05-7.76t-9.21-2.38h-7.49Z"/><path class="cls-1" d="M548.89,265.48a.41.41,0,0,1-.47-.46V222.53a.41.41,0,0,1,.47-.46h2.65c.26,0,.4.15.4.46v39.7h19.95a.41.41,0,0,1,.46.47V265a.4.4,0,0,1-.46.46Z"/><path class="cls-1" d="M581,265.48a.41.41,0,0,1-.47-.46V222.53a.41.41,0,0,1,.47-.46H604.3a.4.4,0,0,1,.46.46v2.32a.41.41,0,0,1-.46.47H584v16.43h18.75a.42.42,0,0,1,.47.47v2.19a.42.42,0,0,1-.47.46H584v17.36H604.3a.41.41,0,0,1,.46.47V265a.4.4,0,0,1-.46.46Z"/><path class="cls-1" d="M628.69,266.28q-7.76,0-11.2-3.15t-3.25-9c0-.49.22-.73.53-.73h2.52c.35,0,.53.22.53.66q0,4.77,2.65,6.93c1.77,1.44,4.6,2.15,8.48,2.15s6.73-.63,8.52-1.89,2.69-3.25,2.69-6a8.77,8.77,0,0,0-.8-4,7.07,7.07,0,0,0-2.52-2.69,26.78,26.78,0,0,0-4.5-2.25l-8.69-3.71a23.68,23.68,0,0,1-5-2.82,8.53,8.53,0,0,1-2.74-3.45,12,12,0,0,1-.83-4.74,9,9,0,0,1,3.64-7.69c2.39-1.72,5.74-2.58,10.08-2.58a20,20,0,0,1,7.88,1.36,10.15,10.15,0,0,1,4.81,3.94,10.84,10.84,0,0,1,1.43,6.43c0,.53-.2.8-.47.8h-2.58a.42.42,0,0,1-.34-.17,1.13,1.13,0,0,1-.13-.63,7.33,7.33,0,0,0-2.52-6.4q-2.72-2.22-8.22-2.22a13.58,13.58,0,0,0-7.39,1.7,6,6,0,0,0-2.68,5.26,8.32,8.32,0,0,0,.69,3.62,6.78,6.78,0,0,0,2.26,2.52,26.46,26.46,0,0,0,4.21,2.28l8.68,3.71a29.63,29.63,0,0,1,5.44,3,8.8,8.8,0,0,1,2.95,3.55,13.11,13.11,0,0,1,.89,5.17q0,5.43-3.55,8.25T628.69,266.28Z"/><path class="cls-1" d="M386.31,153.07h-.9a34,34,0,0,0-34-33.95v-.89a34,34,0,0,0,34-34h.9a34,34,0,0,0,33.95,34v.89A34,34,0,0,0,386.31,153.07Z"/></svg>